<svg width="400" height="200" viewBox="0 0 400 200" fill="none" xmlns="http://www.w3.org/2000/svg">
  <rect width="400" height="200" fill="#f3f4f6"/>
  <rect x="0" y="0" width="400" height="200" fill="url(#gradient)"/>
  
  <!-- Calendar Icon -->
  <rect x="150" y="60" width="100" height="80" rx="8" fill="white" stroke="#d1d5db" stroke-width="2"/>
  <rect x="150" y="60" width="100" height="20" rx="8" fill="#3b82f6"/>
  <rect x="160" y="70" width="8" height="4" rx="2" fill="white"/>
  <rect x="172" y="70" width="8" height="4" rx="2" fill="white"/>
  <rect x="184" y="70" width="8" height="4" rx="2" fill="white"/>
  <rect x="196" y="70" width="8" height="4" rx="2" fill="white"/>
  <rect x="208" y="70" width="8" height="4" rx="2" fill="white"/>
  <rect x="220" y="70" width="8" height="4" rx="2" fill="white"/>
  <rect x="232" y="70" width="8" height="4" rx="2" fill="white"/>
  
  <!-- Date Numbers -->
  <text x="200" y="110" text-anchor="middle" font-family="Arial, sans-serif" font-size="24" font-weight="bold" fill="#374151">15</text>
  
  <!-- Event Text -->
  <text x="200" y="130" text-anchor="middle" font-family="Arial, sans-serif" font-size="14" fill="#6b7280">Event Cover</text>
  
  <defs>
    <linearGradient id="gradient" x1="0%" y1="0%" x2="100%" y2="100%">
      <stop offset="0%" style="stop-color:#e5e7eb;stop-opacity:1" />
      <stop offset="100%" style="stop-color:#f9fafb;stop-opacity:1" />
    </linearGradient>
  </defs>
</svg>



